<?xml version="1.0" encoding="UTF-8"?>
<svg id="Layer_2" data-name="Layer 2" xmlns="http://www.w3.org/2000/svg" viewBox="0 0 1273.67 1422.78">
  <g id="Layer_1-2" data-name="Layer 1">
    <g>
      <path d="M360.07,996l.02,5.99c-10.28-.87-19.66,3.26-24.41,12.61-8.27,16.28-7.06,89.09-5.69,110.48,3.14,48.81,25.44,62.75,73.17,59,36.64-2.88,46.62-28.1,48.89-61.11,1.9-27.52,3.64-68.43-.88-95.08-2.92-17.19-12.84-27.59-31.11-25.91v-5.99h72.01c.49,6.98-8.05,5.84-12.8,8.2-10.01,4.97-12.59,10.82-14.3,21.7-10.7,67.98,23.87,163.26-74.16,171.84-38.43,3.37-84.26-7.85-88.72-52.76-3.97-39.98,3.68-81.35-2.54-121.46-2.56-16.52-10.79-22.73-27.49-21.53v-5.99h88.01Z"/>
      <path d="M632.07,1272l55,109.96,54-107.96h47c-3.61,6.42-15.89,3.39-20.12,9.38-3.58,5.08-5.55,29.72-5.96,37.53-1.5,28.35.87,57.3.57,85.7,1.23,10.07,14.94,6.23,19.52,13.39h-62l15.09-7.91,4.44-9.56,4.47-108.51-63.01,124.01-63.98-124.04c-.04,10.8-2.67,22.34-3.08,32.94-.76,19.33-2.28,53.81.26,71.9.96,6.86,4.83,14.01,11.71,16.29,5.11,1.69,13.68-1.71,12.1,4.88l-55.98,2c-1.03-5.95,1.56-3.17,4.68-4.21,19.46-6.46,19.83-11.96,21.39-32.7,2.27-30.05-1.49-63.28-.5-93.66-3.59-10.37-9.87-12.13-18.89-15.2-3.11-1.06-5.69,1.76-4.69-4.22h48Z"/>
      <path d="M766.06,1059.99c-3.58.79-3.95-1.05-5.67-3.31-15.82-20.8-17.26-42.66-47.78-54.22-80.9-30.65-111.04,101.13-66.5,156.5,39.22,48.77,93.47,33.6,120.98-16.95l4.98,3.06c-32.64,80.51-154.77,66.22-176.56-15.5-25.49-95.63,61.25-172.63,149.59-122.11l13.97-13.41c6.57-.09,6.72,58.54,6.99,65.95Z"/>
      <path d="M.07,1196v-5.99c25.23,2.31,32.12-13.04,33.97-35.04,1.95-23.26,3.21-114.82-2.54-133.4-5.64-18.21-16.62-17.3-31.39-24.57-.21-6.64,27.04-1.01,30.88-.92,21.66.54,43.45-.58,65.09-.07v5.98c-19.17-1.91-31.46,5.65-33.79,25.23-3.78,31.79-3.29,107.42-.32,139.87,2.13,23.28,24.75,22.22,43.07,20.88,28.35-2.06,43.44-14.26,59.85-36.16,1.92-2.56,12.07-23.35,15.17-19.81l-7.99,63.99H.07Z"/>
      <path d="M186.07,1274v3.98c-8.89.5-18,2.4-18,13.02v53h73l3-3v-46c0-1.62-3.41-9.37-4.84-11.16l-17.16-9.84h63c.87,0,4.39,3.26,1.04,5.04-21.05-.47-20.91,12.6-22.12,29.88-1.58,22.5-3.58,60.34-2,82.17.7,9.66,1.05,18.6,10.66,23.33,4.63,2.28,14.7,1.08,13.41,7.57-21.58-.92-42.42-2.06-63.98,0-.8-7.12,10.49-4.06,15.14-7.84,1.19-.97,4.85-8.15,4.85-9.15v-55h-67c-1.08,0-4.45,3.09-7,2v55c0,5.17,9.81,8.67,13.61,10.48,2.76,1.31,5.48-1.24,4.38,4.51-20.08-2.62-39.93-2.61-59.98,0l16.89-12.09c4.39-34.07,8.69-76.51,4.84-110.64-.75-6.7-1.63-14.44-7.9-18.1-.64-.37-18.77-7.15-6.85-7.15h53Z"/>
      <path d="M511.16,1346.51c0,41.55-33.68,75.22-75.22,75.22s-75.22-33.68-75.22-75.22,33.68-75.22,75.22-75.22,75.22,33.68,75.22,75.22ZM427.54,1276.49c-50.9,8.6-53.24,123.79-4.57,137.61,79.74,22.64,82.27-150.73,4.57-137.61Z"/>
      <path d="M983.07,0l2.99,4.98c-.91,3.96-24.66,9.71-29.96,12.06-33.69,14.89-52.14,32.01-58.02,69.98-2.78,242.68-4.51,486.58.87,729.09,3.94,22.13,24.29,48.68,47.02,52.98,21.81,4.12,111.45,3.54,134.57.39,33.17-4.51,89.36-43.48,111.57-68.43,19.11-21.47,26.12-41.96,54.2-55.8,13.53-6.67,26.04-13.73,20.83,8.85l-50.31,148.02-1164.86-1.04L0,743.06l3.23-4.85c40.45,6.43,53.66,42.38,77.82,67.81,27.32,28.76,68.71,52.05,106.55,63.45,45.56-4.02,107.33,7.38,151,.05,21.4-3.59,41.83-29.26,46.54-49.46,6.79-241.13,1.05-483.46,2.9-725.03-2.58-31.78-17.35-57.42-45.88-72.12-6.99-3.6-40.63-13.31-41.79-15.21-1.08-1.78.03-5.38-.3-7.71h683ZM832.07,422V155c0-14.37-12.76-40.8-21.18-52.82C731.62-11.02,454.13,8.2,451.97,174.9l.12,253.09,7.46-31.51c51.14-172.42,292.61-183.35,360.05-17l12.47,42.53ZM634.06,276.01c-89.17,5.63-160.97,76.52-165.99,165.98,88.99-2.63,162.79-77.26,165.99-165.98ZM816.08,442.01c-2.57-81.52-65.77-150.35-145.56-163.46l-19.49-.56c3.61,86.9,77.73,161.36,165.05,164.01ZM768.05,450.03c-58.28-17.55-107.57-65.14-124.01-124.02-2.89.2-3.07,3.06-4.03,4.94-34.64,67.87-45.91,84.55-117.05,116.95-1.98.9-4.68,1.33-4.9,4.08,47.89,13.7,89.72,50.59,112.35,94.67,4.7,9.16,6.84,22.02,13.62,29.35,11.59-47.41,47.62-85.85,88.68-110.34l35.33-15.63ZM634.08,624c-4.1-87.69-77.59-162.56-166-163.99,4.69,87.5,77.57,162.4,166,163.99ZM816.08,459.99c-75.84,1.25-143.66,59.18-160.66,132.36-2.47,10.61-2.83,21.15-5.35,31.63,87.81-.75,162.98-76.79,166.01-163.99ZM452.07,474v396h380v-392l-9.46,35.54c-59.97,169.98-300.82,169.02-360.58-.51l-9.97-39.03Z"/>
      <path d="M951.07,994c11.25,2.75-14.1,9.25-15.73,10.27-7.51,4.72-8.71,16.46-9.35,24.65-1.76,22.7-1.23,47.29-2.02,70.17,4.95,24.11-.79,51.76,4.51,75.49,2.43,10.91,15.96,14.74,25.58,15.42,1.18,1.3-1.82,5.99-2.99,5.99h-72l-1.07-7.07c16.36-.08,18.7-7.19,20.03-21.97,3.11-34.52,2.37-92.99.12-128.05-1.14-17.83-1.54-38.9-24.08-38.95v-5.97h77Z"/>
      <path d="M900.07,1401c4.14,23.53,59.74,17.41,73.82,3.82l18.17-20.81-6.94,36.04-129.04-.06c-1.58-6.6,6.99-3.18,12.1-4.88,10.11-3.36,11.24-14.72,11.96-24.04,1.78-23.13,2.64-82.9-2.18-103.97-2.69-11.79-16.2-4.91-17.89-15.09l116.67,1.9,7.33,35.08-3.97.99c-.81-8.83-24.35-29.98-31.04-29.98h-47c.65,1.96-2,4.34-2,5v57c21.91,1.67,37.75-2.11,43.99-25.03,7.84.8,2.08,12.48,1.93,17.95-.36,12.99.45,26.09.07,39.07l-9.14-15.84c-9.31-13.22-22.52-9.93-36.85-10.15,1.96,15.92-2.65,37.9,0,53Z"/>
      <path d="M1054.08,1195.99c.4-8.32,12.48-5.62,20-8.98,14.39-6.42,15.04-27.85,15.97-42.03,1.11-16.84,1.71-35.16,2.1-51.9s2.37-75.8-6.02-86.15c-5.86-7.23-18.85-4.1-20.06-12.92l114.44,2.54c126.15,14.2,123.38,192.09-3.47,201.42-14.19,1.04-27.05-1.94-39.89-2.06-27.68-.25-55.41.36-83.07.07ZM1124.75,1181.32c15.25,15.67,60.06,9.74,77.2-2.45,57.92-41.22,47.88-156.13-25.81-173.94-9.32-2.25-50.56-7.32-53.74,2.39l-4.41,61.59c4.36,25.41-11.01,94.14,6.76,112.41Z"/>
      <path d="M1149.98,1279.94l2.11-7.93c2.74-.54,4.81.69,5.62,3.35,2.98,9.83,1.56,25.97,4.35,36.63-4.88,4.75-11.45-12.81-14.33-16.64-28.1-37.33-75.72-11.93-58.49,18.49,13.5,23.83,81.7,14.84,81.7,63.17,0,45.35-57.08,56.06-89.66,35.15-4.1.95-4.76,13.9-9.18,9.84-1.85-1.7-5.66-48.08-4.02-49.98,3.64-.76,3.95.97,5.51,3.47,7.81,12.46,8.55,22.94,22.43,33.57,39.05,29.89,80.31-19.94,43.92-45.92-18.49-13.2-47.62-11.56-62.91-31.09-14.21-18.15-11.04-37.38,7.22-50.87,21.11-15.59,43.35-8.92,65.74-1.24Z"/>
    </g>
  </g>
</svg>